<?xml version="1.0"?>
<svg xmlns="http://www.w3.org/2000/svg" height="512px" viewBox="0 -63 480 480" width="512px" class=""><g><path d="m470 50v254c.007812 22.09375-17.90625 40.007812-40 40h-380c-22.09375.007812-40.007812-17.90625-40-40v-254c-.007812-22.09375 17.90625-40.007812 40-40h380c22.09375-.007812 40.007812 17.90625 40 40zm-396 224.300781h138.898438c0-41.601562-31.097657-72.199219-69.398438-72.199219-38.398438 0-69.5 30.5-69.5 72.199219zm111.101562-152.902343c0-23.027344-18.671874-41.699219-41.703124-41.699219-23.027344 0-41.699219 18.671875-41.699219 41.699219 0 23.03125 18.671875 41.703124 41.699219 41.703124 23.023437-.023437 41.679687-18.679687 41.703124-41.703124zm0 0" fill="#e48e66" data-original="#E48E66" class="" data-old_color="#e48e66" style="fill:#FFC1C1"/><path d="m253 10h-196.699219c-25.601562 0-46.300781 17.898438-46.300781 40v254c0 22.101562 20.699219 40 46.300781 40h196.699219zm0 0" fill="#d18162" data-original="#D18162" class="" data-old_color="#d18162" style="fill:#EC552D"/><path d="m212.898438 274.300781h-138.898438c0-41.601562 31.101562-72.199219 69.398438-72.199219 38.402343 0 69.5 30.5 69.5 72.199219zm0 0" fill="#f8ec7d" data-original="#F8EC7D" class="" data-old_color="#f8ec7d" style="fill:#62D166"/><path d="m143.398438 79.699219c23.03125 0 41.703124 18.671875 41.703124 41.699219 0 23.03125-18.671874 41.703124-41.703124 41.703124-23.027344 0-41.699219-18.671874-41.699219-41.703124.023437-23.019532 18.679687-41.675782 41.699219-41.699219zm0 0" fill="#f8ec7d" data-original="#F8EC7D" class="" data-old_color="#f8ec7d" style="fill:#62D166"/><g fill="#63316d"><path d="m143.398438 173c28.515624-.027344 51.609374-23.152344 51.601562-51.667969-.007812-28.511719-23.121094-51.621093-51.632812-51.632812-28.511719-.007813-51.640626 23.089843-51.667969 51.601562.039062 28.535157 23.164062 51.660157 51.699219 51.699219zm0-83.300781c17.480468.027343 31.628906 14.222656 31.601562 31.699219-.027344 17.480468-14.21875 31.628906-31.699219 31.601562s-31.628906-14.21875-31.601562-31.699219c.050781-17.472656 14.230469-31.609375 31.699219-31.601562zm0 0" data-original="#63316D" class="active-path" style="fill:#6D3131" data-old_color="#63316D"/><path d="m143.398438 192.101562c-21.148438-.136718-41.441407 8.347657-56.199219 23.5-15 15.296876-23.199219 36.097657-23.199219 58.699219.015625 5.515625 4.484375 9.984375 10 10h138.800781c5.515625-.015625 9.984375-4.484375 10-10 0-22.601562-8.199219-43.402343-23.199219-58.699219-14.746093-15.167968-35.046874-23.65625-56.203124-23.5zm-58.699219 72.199219c1.714843-13.074219 7.605469-25.246093 16.800781-34.699219 11.066406-11.199218 26.15625-17.5 41.898438-17.5 15.746093 0 30.835937 6.300782 41.902343 17.5 9.175781 9.464844 15.066407 21.628907 16.800781 34.699219zm0 0" data-original="#63316D" class="active-path" style="fill:#6D3131" data-old_color="#63316D"/><path d="m430 0h-380c-27.609375.0117188-49.9882812 22.390625-50 50v254c.0117188 27.609375 22.390625 49.988281 50 50h380c27.609375-.011719 49.988281-22.390625 50-50v-254c-.011719-27.609375-22.390625-49.9882812-50-50zm30 304c-.046875 16.546875-13.453125 29.953125-30 30h-380c-16.546875-.046875-29.953125-13.453125-30-30v-254c.046875-16.546875 13.453125-29.953125 30-30h380c16.546875.046875 29.953125 13.453125 30 30zm0 0" data-original="#63316D" class="active-path" style="fill:#6D3131" data-old_color="#63316D"/><path d="m405.398438 167h-116.5c-5.519532 0-10 4.476562-10 10s4.480468 10 10 10h116.5c5.523437 0 10-4.476562 10-10s-4.476563-10-10-10zm0 0" data-original="#63316D" class="active-path" style="fill:#6D3131" data-old_color="#63316D"/><path d="m405.398438 231h-116.5c-5.519532 0-10 4.476562-10 10s4.480468 10 10 10h116.5c5.523437 0 10-4.476562 10-10s-4.476563-10-10-10zm0 0" data-original="#63316D" class="active-path" style="fill:#6D3131" data-old_color="#63316D"/><path d="m405.398438 103h-116.5c-5.519532 0-10 4.476562-10 10s4.480468 10 10 10h116.5c5.523437 0 10-4.476562 10-10s-4.476563-10-10-10zm0 0" data-original="#63316D" class="active-path" style="fill:#6D3131" data-old_color="#63316D"/></g></g> </svg>
